<svg width="1000" height="1000" viewBox="0 0 1000 1000" fill="none" xmlns="http://www.w3.org/2000/svg">
<g clip-path="url(#clip0_3_76)">
<rect width="1000" height="1000" rx="500" fill="#9DFBAE"/>
<path d="M499.346 101H512.05L530.2 119.917L544.719 137.113L561.053 156.03L584.647 183.545L610.056 216.219L628.205 240.295L649.985 271.249L666.319 297.044L686.283 336.597L702.617 377.87L713.507 413.983L720.766 453.536L722.581 472.453V506.846L718.952 542.96L709.877 580.793L697.173 615.187L675.393 658.179L660.874 678.815L642.725 701.171L599.167 745.883L586.462 757.921L573.758 771.678L548.349 795.754L533.829 814.67L528.385 833.587L526.57 849.064L524.755 883.458L519.31 892.056L510.235 898.935H497.531L488.456 893.776L483.012 886.897L481.197 881.738L479.382 837.026L472.122 816.39L459.418 797.474L439.453 775.118L414.045 749.322L392.266 728.686L379.561 714.929L359.597 692.573L337.818 663.338L316.039 625.505L301.519 587.672L292.445 551.558L288.815 527.483L287 505.127V463.854L290.63 432.9L299.704 393.347L316.039 346.915L330.558 315.961L345.078 290.166L370.486 252.333L394.08 221.378L412.23 199.022L432.194 174.947L452.158 152.591L472.122 128.515L488.456 111.318L495.716 102.72L499.346 101Z" fill="#148D22"/>
<path d="M499.346 101H506.606V291.885L441.268 432.9L401.34 520.604L399.525 525.763H497.531L499.346 611.747V696.012H506.606L508.421 778.557L522.94 802.633L530.2 818.11L526.57 849.064L524.755 883.458L519.31 892.056L510.235 898.935H497.531L488.456 893.776L483.012 886.897L481.197 881.738L479.382 837.026L472.122 816.39L459.418 797.474L439.453 775.118L414.045 749.322L392.266 728.686L379.561 714.929L359.597 692.573L337.818 663.338L316.039 625.505L301.519 587.672L292.445 551.558L288.815 527.483L287 505.127V463.854L290.63 432.9L299.704 393.347L316.039 346.915L330.558 315.961L345.078 290.166L370.486 252.333L394.08 221.378L412.23 199.022L432.194 174.947L452.158 152.591L472.122 128.515L488.456 111.318L495.716 102.72L499.346 101Z" fill="#35BB33"/>
<path d="M508.421 285.007H512.05V463.854H606.426L608.241 470.733L586.462 517.164L548.349 601.429L508.421 689.133L504.791 696.012H499.346L497.531 611.747V525.763H399.525L401.34 517.164L428.564 456.975L493.901 315.961L506.606 286.726L508.421 285.007Z" fill="#161A1C"/>
</g>
<defs>
<clipPath id="clip0_3_76">
<rect width="1000" height="1000" rx="500" fill="white"/>
</clipPath>
</defs>
</svg>
